HIERARCHY
ROOT joint_Root
{
  OFFSET 0 0 0
  CHANNELS 6 Xposition Yposition Zposition Zrotation Xrotation Yrotation
  JOINT Hips
  {
    OFFSET 0 93.9241 -3
    CHANNELS 6 Xposition Yposition Zposition Zrotation Xrotation Yrotation
    JOINT Spine
    {
      OFFSET 15.7357 0 0
      CHANNELS 6 Xposition Yposition Zposition Zrotation Xrotation Yrotation
      JOINT Chest
      {
        OFFSET 8.98455 -0.406207 0
        CHANNELS 6 Xposition Yposition Zposition Zrotation Xrotation Yrotation
        JOINT Neck
        {
          OFFSET 16.3773 0 0
          CHANNELS 6 Xposition Yposition Zposition Zrotation Xrotation Yrotation
          JOINT Head
          {
            OFFSET 6.45672 0 0
            CHANNELS 6 Xposition Yposition Zposition Zrotation Xrotation Yrotation
            End Site
            {
              OFFSET 0 0 0
            }
          }
        }
        JOINT Shoulder_L
        {
          OFFSET 12.9942 -0.242716 4.98039
          CHANNELS 6 Xposition Yposition Zposition Zrotation Xrotation Yrotation
          JOINT UpperArm_L
          {
            OFFSET 5.34809 0 0
            CHANNELS 6 Xposition Yposition Zposition Zrotation Xrotation Yrotation
            JOINT LowerArm_L
            {
              OFFSET 24.3286 1.87007e-05 0
              CHANNELS 6 Xposition Yposition Zposition Zrotation Xrotation Yrotation
              JOINT Hand_L
              {
                OFFSET 22.2916 0 0
                CHANNELS 6 Xposition Yposition Zposition Zrotation Xrotation Yrotation
                End Site
                {
                  OFFSET 0 0 0
                }
              }
            }
          }
        }
        JOINT Shoulder_R
        {
          OFFSET 12.9945 -0.242716 -4.98039
          CHANNELS 6 Xposition Yposition Zposition Zrotation Xrotation Yrotation
          JOINT UpperArm_R
          {
            OFFSET -5.34813 0 0
            CHANNELS 6 Xposition Yposition Zposition Zrotation Xrotation Yrotation
            JOINT LowerArm_R
            {
              OFFSET -24.3289 0.000322201 0
              CHANNELS 6 Xposition Yposition Zposition Zrotation Xrotation Yrotation
              JOINT Hand_R
              {
                OFFSET -22.2915 -0.000108084 0
                CHANNELS 6 Xposition Yposition Zposition Zrotation Xrotation Yrotation
                End Site
                {
                  OFFSET 0 0 0
                }
              }
            }
          }
        }
      }
    }
    JOINT UpperLeg_L
    {
      OFFSET -2.19248 -6.46944 0
      CHANNELS 6 Xposition Yposition Zposition Zrotation Xrotation Yrotation
      JOINT LowerLeg_L
      {
        OFFSET 39.0811 0 -1.23785e-05
        CHANNELS 6 Xposition Yposition Zposition Zrotation Xrotation Yrotation
        JOINT Foot_L
        {
          OFFSET 40.9854 0 -1.26872e-05
          CHANNELS 6 Xposition Yposition Zposition Zrotation Xrotation Yrotation
          JOINT Toes_L
          {
            OFFSET 11.7543 0 0
            CHANNELS 6 Xposition Yposition Zposition Zrotation Xrotation Yrotation
            End Site
            {
              OFFSET 0 0 0
            }
          }
        }
      }
    }
    JOINT UpperLeg_R
    {
      OFFSET -2.19251 6.46944 0
      CHANNELS 6 Xposition Yposition Zposition Zrotation Xrotation Yrotation
      JOINT LowerLeg_R
      {
        OFFSET -39.0811 -0.00228153 -0.0401928
        CHANNELS 6 Xposition Yposition Zposition Zrotation Xrotation Yrotation
        JOINT Foot_R
        {
          OFFSET -40.9854 0 0
          CHANNELS 6 Xposition Yposition Zposition Zrotation Xrotation Yrotation
          JOINT Toes_R
          {
            OFFSET -11.7543 0 0
            CHANNELS 6 Xposition Yposition Zposition Zrotation Xrotation Yrotation
            End Site
            {
              OFFSET 0 0 0
            }
          }
        }
      }
    }
  }
}
MOTION
Frames:	4
Frame Time:	0.0333333
0 0 0 0 0 -0 2.51432 91.1421 -397.538 93.1787 2.24214 -0.668275 15.7357 5.1072e-06 -5.51765e-07 88.0416 81.5206 -89.075 8.98455 -0.406207 -4.3199e-07 9.17874 -0.589124 -2.01772 16.3773 -1.3905e-06 -6.99897e-07 -6.14224 -1.34932 -0.881792 6.45672 -1.25837e-06 -1.02172e-07 3.43445 -4.1821 0.699723 12.9942 -0.242716 4.98039 -90.3643 2.65721 -97.1902 5.34809 -7.22636e-06 -6.2814e-07 -72.0808 0.315774 5.98431 24.3286 1.87007e-05 4.90208e-06 0.619164 0.978275 -32.3402 22.2916 -9.88446e-07 4.63217e-06 23.4809 5.53652 -8.08643 12.9945 -0.242716 -4.98039 89.2402 6.72071 -98.5342 -5.34813 -1.25947e-06 -3.79883e-06 -74.9193 0.281541 19.9526 -24.3289 0.000322201 -8.65921e-06 -2.98043 -6.90741 -23.4013 -22.2915 -0.000108084 -4.47941e-06 27.9531 5.68176 -21.6607 -2.19248 -6.46944 -1.22533e-07 173.249 2.62156 -10.9698 39.0811 -6.73843e-06 -1.23785e-05 0.0700677 -0.081834 27.0356 40.9854 -6.48686e-06 -1.26872e-05 4.75545 0.654675 -66.837 11.7543 -2.30145e-07 3.05095e-06 -0.0665982 0.058465 -16.5749 -2.19251 6.46944 -1.45247e-06 179.212 2.30056 157.58 -39.0811 -0.00228153 -0.0401928 -0.363878 0.140917 68.1633 -40.9854 7.72618e-06 5.99936e-06 9.99148 -22.8889 -36.9533 -11.7543 -5.6619e-06 -5.58687e-06 0.577382 -0.650189 -21.4139 
0 0 0 0 0 -0 2.34159 91.3936 -394.113 92.1727 2.58048 -0.361303 15.7357 5.1072e-06 -5.51765e-07 86.2185 81.2803 -86.8428 8.98455 -0.406207 -4.3199e-07 9.63078 -1.15348 -1.15031 16.3773 -1.3905e-06 -6.99897e-07 -5.59109 -1.20011 -0.991837 6.45672 -1.25837e-06 -1.02172e-07 3.46981 -3.73015 0.686612 12.9942 -0.242716 4.98039 -90.3171 2.3395 -97.2803 5.34809 -7.22636e-06 -6.2814e-07 -71.0171 1.29831 2.63747 24.3286 1.87007e-05 4.90208e-06 0.183909 0.265554 -34.7379 22.2916 -9.88446e-07 4.63217e-06 23.4369 5.54414 -8.4344 12.9945 -0.242716 -4.98039 89.1938 6.64633 -98.0681 -5.34813 -1.25947e-06 -3.79883e-06 -75.616 0.245748 21.3712 -24.3289 0.000322201 -8.65921e-06 -3.13536 -7.18259 -23.6514 -22.2915 -0.000108084 -4.47941e-06 27.4029 5.68176 -21.6511 -2.19248 -6.46944 -1.22533e-07 174.548 1.18205 -6.88978 39.0811 -6.73843e-06 -1.23785e-05 0.0545813 -0.0684988 24.5059 40.9854 -6.48686e-06 -1.26872e-05 4.97947 2.17835 -68.2405 11.7543 -2.30145e-07 3.05095e-06 -0.063544 0.0559632 -16.5751 -2.19251 6.46944 -1.45247e-06 -179.572 1.58154 154.002 -39.0811 -0.00228153 -0.0401928 -0.357212 0.160904 65.133 -40.9854 7.72618e-06 5.99936e-06 9.36854 -24.9064 -42.7576 -11.7543 -5.6619e-06 -5.58687e-06 0.477086 -0.529054 -20.5392 
0 0 0 0 0 -0 2.18033 91.5539 -390.874 91.5512 3.18624 -0.407876 15.7357 5.1072e-06 -5.51765e-07 84.0675 81.1341 -84.4008 8.98455 -0.406207 -4.3199e-07 9.86937 -1.82755 -0.508385 16.3773 -1.3905e-06 -6.99897e-07 -5.30487 -1.00811 -1.12232 6.45672 -1.25837e-06 -1.02172e-07 3.68959 -3.36118 0.593906 12.9942 -0.242716 4.98039 -90.2771 2.06013 -97.3359 5.34809 -7.22636e-06 -6.2814e-07 -69.6417 2.82038 -0.779566 24.3286 1.87007e-05 4.90208e-06 0.323458 0.419367 -37.6101 22.2916 -9.88446e-07 4.63217e-06 23.7218 5.54185 -8.32673 12.9945 -0.242716 -4.98039 89.1524 6.61499 -97.681 -5.34813 -1.25947e-06 -3.79883e-06 -76.4121 0.588089 22.9808 -24.3289 0.000322201 -8.65921e-06 -3.24258 -7.21952 -24.2596 -22.2915 -0.000108084 -4.47941e-06 27.0755 5.68168 -21.7513 -2.19248 -6.46944 -1.22533e-07 175.583 0.0255028 -2.87189 39.0811 -6.73843e-06 -1.23785e-05 0.0347252 -0.0448505 21.1175 40.9854 -6.48686e-06 -1.26872e-05 5.13977 3.76826 -69.0518 11.7543 -2.30145e-07 3.05095e-06 -0.051941 0.0460298 -16.5755 -2.19251 6.46944 -1.45247e-06 -179.04 1.02017 151.532 -39.0811 -0.00228153 -0.0401928 -0.294884 0.175924 58.4014 -40.9854 7.72618e-06 5.99936e-06 9.09381 -24.2625 -46.7515 -11.7543 -5.6619e-06 -5.58687e-06 0.511243 -0.569908 -20.8355 
0 0 0 0 0 -0 2.07612 91.553 -387.727 91.4209 3.84584 -0.711816 15.7357 5.1072e-06 -5.51765e-07 82.1272 81.0762 -82.3261 8.98455 -0.406207 -4.3199e-07 9.91573 -2.43319 -0.186397 16.3773 -1.3905e-06 -6.99897e-07 -5.09698 -1.02366 -1.29157 6.45672 -1.25837e-06 -1.02172e-07 3.7517 -3.02685 0.54302 12.9942 -0.242716 4.98039 -90.2127 1.64398 -97.6286 5.34809 -7.22636e-06 -6.2814e-07 -68.5096 3.72873 -3.8906 24.3286 1.87007e-05 4.90208e-06 0.925466 1.05816 -41.1602 22.2916 -9.88446e-07 4.63217e-06 24.339 5.5387 -8.18312 12.9945 -0.242716 -4.98039 89.1139 6.54145 -97.2687 -5.34813 -1.25947e-06 -3.79883e-06 -77.2587 1.12065 24.552 -24.3289 0.000322201 -8.65921e-06 -3.11537 -6.79377 -24.6993 -22.2915 -0.000108084 -4.47941e-06 26.5354 5.68135 -22.0082 -2.19248 -6.46944 -1.22533e-07 176.042 -0.28981 1.20473 39.0811 -6.73843e-06 -1.23785e-05 0.0199836 -0.0285632 16.9739 40.9854 -6.48686e-06 -1.26872e-05 5.09311 4.54814 -69.3298 11.7543 -2.30145e-07 3.05095e-06 0.027278 -0.030405 -16.8751 -2.19251 6.46944 -1.45247e-06 -179.439 0.742035 150.541 -39.0811 -0.00228153 -0.0401928 -0.187178 0.160607 48.1045 -40.9854 7.72618e-06 5.99936e-06 7.78226 -22.1584 -49.465 -11.7543 -5.6619e-06 -5.58687e-06 0.476292 -0.528131 -20.5325 
